<svg width="252" height="252" viewBox="0 0 252 252" fill="none" xmlns="http://www.w3.org/2000/svg">
<mask id="mask0_2_10049" style="mask-type:luminance" maskUnits="userSpaceOnUse" x="0" y="0" width="252" height="252">
<path d="M0.491882 251.405H251.83V0.0622075H0.491882V251.405Z" fill="white"/>
</mask>
<g mask="url(#mask0_2_10049)">
<mask id="mask1_2_10049" style="mask-type:luminance" maskUnits="userSpaceOnUse" x="4" y="4" width="244" height="244">
<path d="M4.86157 247.038H247.464V4.43545H4.86157V247.038Z" fill="white"/>
</mask>
<g mask="url(#mask1_2_10049)">
<mask id="mask2_2_10049" style="mask-type:luminance" maskUnits="userSpaceOnUse" x="13" y="12" width="227" height="227">
<path d="M13.2275 238.672H239.099V12.8009H13.2275V238.672Z" fill="white"/>
</mask>
<g mask="url(#mask2_2_10049)">
<path d="M52.1662 89.7921L92.2873 56.4993" stroke="black" stroke-width="1.16189" stroke-miterlimit="10" stroke-linejoin="round"/>
<path d="M52.1665 89.7921L32.8276 50.4607" stroke="black" stroke-width="1.16189" stroke-miterlimit="10" stroke-linejoin="round"/>
<path d="M52.1662 89.7921L53.7573 32.4013" stroke="black" stroke-width="1.16189" stroke-miterlimit="10" stroke-linejoin="round"/>
<path d="M52.1662 89.7922L66.8542 166.595" stroke="black" stroke-width="1.16189" stroke-miterlimit="10" stroke-linejoin="round"/>
<path d="M92.2877 56.4993L32.8276 50.4607" stroke="black" stroke-width="1.16189" stroke-miterlimit="10" stroke-linejoin="round"/>
<path d="M92.2873 56.4993L53.7573 32.4013" stroke="black" stroke-width="1.16189" stroke-miterlimit="10" stroke-linejoin="round"/>
<path d="M92.2881 56.4993L168.877 81.7875" stroke="black" stroke-width="1.16189" stroke-miterlimit="10" stroke-linejoin="round"/>
<path d="M32.8276 50.4608L53.7577 32.4014" stroke="black" stroke-width="1.16189" stroke-miterlimit="10" stroke-linejoin="round"/>
<path d="M168.877 81.7876L178.492 131.479" stroke="black" stroke-width="1.16189" stroke-miterlimit="10" stroke-linejoin="round"/>
<path d="M168.877 81.7876L214.723 85.5443" stroke="black" stroke-width="1.16189" stroke-miterlimit="10" stroke-linejoin="round"/>
<path d="M168.877 81.7875L219.498 111.58" stroke="black" stroke-width="1.16189" stroke-miterlimit="10" stroke-linejoin="round"/>
<path d="M178.493 131.479L214.724 85.5442" stroke="black" stroke-width="1.16189" stroke-miterlimit="10" stroke-linejoin="round"/>
<path d="M178.493 131.479L219.499 111.58" stroke="black" stroke-width="1.16189" stroke-miterlimit="10" stroke-linejoin="round"/>
<path d="M178.492 131.479L116.777 183.075" stroke="black" stroke-width="1.16189" stroke-miterlimit="10" stroke-linejoin="round"/>
<path d="M214.723 85.5441L219.498 111.58" stroke="black" stroke-width="1.16189" stroke-miterlimit="10" stroke-linejoin="round"/>
<path d="M116.777 183.075L66.8546 166.595" stroke="black" stroke-width="1.16189" stroke-miterlimit="10" stroke-linejoin="round"/>
<path d="M116.777 183.075L63.8364 209.758" stroke="black" stroke-width="1.16189" stroke-miterlimit="10" stroke-linejoin="round"/>
<path d="M116.778 183.075L90.5406 219.072" stroke="black" stroke-width="1.16189" stroke-miterlimit="10" stroke-linejoin="round"/>
<path d="M66.854 166.595L63.8364 209.758" stroke="black" stroke-width="1.16189" stroke-miterlimit="10" stroke-linejoin="round"/>
<path d="M66.8546 166.595L90.5402 219.072" stroke="black" stroke-width="1.16189" stroke-miterlimit="10" stroke-linejoin="round"/>
<path d="M63.8364 209.758L90.5396 219.072" stroke="black" stroke-width="1.16189" stroke-miterlimit="10" stroke-linejoin="round"/>
</g>
<mask id="mask3_2_10049" style="mask-type:luminance" maskUnits="userSpaceOnUse" x="13" y="12" width="227" height="227">
<path d="M13.2275 238.672H239.099V12.8009H13.2275V238.672Z" fill="white"/>
</mask>
<g mask="url(#mask3_2_10049)">
<mask id="mask4_2_10049" style="mask-type:luminance" maskUnits="userSpaceOnUse" x="40" y="78" width="24" height="24">
<path d="M40.9426 101.016H63.3908V78.5679H40.9426V101.016Z" fill="white"/>
</mask>
<g mask="url(#mask4_2_10049)">
<path d="M52.1677 99.8544C54.8362 99.8544 57.3958 98.7941 59.2827 96.9072C61.1697 95.0203 62.2299 92.4607 62.2299 89.7921C62.2299 87.1236 61.1697 84.564 59.2827 82.677C57.3958 80.7901 54.8362 79.7299 52.1677 79.7299C49.4991 79.7299 46.9395 80.7901 45.0526 82.677C43.1656 84.564 42.1054 87.1236 42.1054 89.7921C42.1054 92.4607 43.1656 95.0203 45.0526 96.9072C46.9395 98.7941 49.4991 99.8544 52.1677 99.8544Z" fill="#F8BA12" stroke="#F8BA12" stroke-width="1.16189" stroke-miterlimit="10" stroke-linejoin="round"/>
</g>
<mask id="mask5_2_10049" style="mask-type:luminance" maskUnits="userSpaceOnUse" x="81" y="45" width="23" height="23">
<path d="M81.0642 67.7235H103.512V45.2752H81.0642V67.7235Z" fill="white"/>
</mask>
<g mask="url(#mask5_2_10049)">
<path d="M92.2889 66.5616C94.9575 66.5616 97.5171 65.5013 99.404 63.6144C101.291 61.7274 102.351 59.1678 102.351 56.4993C102.351 53.8308 101.291 51.2712 99.404 49.3842C97.5171 47.4973 94.9575 46.437 92.2889 46.437C89.6204 46.437 87.0608 47.4973 85.1738 49.3842C83.2869 51.2712 82.2267 53.8308 82.2267 56.4993C82.2267 59.1678 83.2869 61.7274 85.1738 63.6144C87.0608 65.5013 89.6204 66.5616 92.2889 66.5616Z" fill="#F7B00E" stroke="#F7B00E" stroke-width="1.16189" stroke-miterlimit="10" stroke-linejoin="round"/>
</g>
<mask id="mask6_2_10049" style="mask-type:luminance" maskUnits="userSpaceOnUse" x="21" y="39" width="24" height="23">
<path d="M21.6013 61.6849H44.0496V39.2366H21.6013V61.6849Z" fill="white"/>
</mask>
<g mask="url(#mask6_2_10049)">
<path d="M32.8274 60.5229C35.496 60.5229 38.0556 59.4627 39.9425 57.5757C41.8295 55.6888 42.8897 53.1292 42.8897 50.4606C42.8897 47.7921 41.8295 45.2325 39.9425 43.3455C38.0556 41.4586 35.496 40.3984 32.8274 40.3984C30.1589 40.3984 27.5993 41.4586 25.7124 43.3455C23.8254 45.2325 22.7652 47.7921 22.7652 50.4606C22.7652 53.1292 23.8254 55.6888 25.7124 57.5757C27.5993 59.4627 30.1589 60.5229 32.8274 60.5229Z" fill="#F6A90C" stroke="#F6A90C" stroke-width="1.16189" stroke-miterlimit="10" stroke-linejoin="round"/>
</g>
<mask id="mask7_2_10049" style="mask-type:luminance" maskUnits="userSpaceOnUse" x="42" y="21" width="23" height="23">
<path d="M42.5304 43.6255H64.9787V21.1772H42.5304V43.6255Z" fill="white"/>
</mask>
<g mask="url(#mask7_2_10049)">
<path d="M53.7557 42.4635C56.4242 42.4635 58.9838 41.4033 60.8708 39.5164C62.7577 37.6294 63.8179 35.0698 63.8179 32.4013C63.8179 29.7327 62.7577 27.1731 60.8708 25.2862C58.9838 23.3992 56.4242 22.339 53.7557 22.339C51.0871 22.339 48.5275 23.3992 46.6406 25.2862C44.7536 27.1731 43.6934 29.7327 43.6934 32.4013C43.6934 35.0698 44.7536 37.6294 46.6406 39.5164C48.5275 41.4033 51.0871 42.4635 53.7557 42.4635Z" fill="#F7B00E" stroke="#F7B00E" stroke-width="1.16189" stroke-miterlimit="10" stroke-linejoin="round"/>
</g>
<mask id="mask8_2_10049" style="mask-type:luminance" maskUnits="userSpaceOnUse" x="157" y="70" width="24" height="24">
<path d="M157.65 93.0116H180.098V70.5633H157.65V93.0116Z" fill="white"/>
</mask>
<g mask="url(#mask8_2_10049)">
<path d="M168.875 91.8496C171.544 91.8496 174.103 90.7894 175.99 88.9024C177.877 87.0155 178.937 84.4559 178.937 81.7874C178.937 79.1188 177.877 76.5592 175.99 74.6723C174.103 72.7853 171.544 71.7251 168.875 71.7251C166.207 71.7251 163.647 72.7853 161.76 74.6723C159.873 76.5592 158.813 79.1188 158.813 81.7874C158.813 84.4559 159.873 87.0155 161.76 88.9024C163.647 90.7894 166.207 91.8496 168.875 91.8496Z" fill="#2E727E" stroke="#2E727E" stroke-width="1.16189" stroke-miterlimit="10" stroke-linejoin="round"/>
</g>
<mask id="mask9_2_10049" style="mask-type:luminance" maskUnits="userSpaceOnUse" x="167" y="120" width="23" height="23">
<path d="M167.265 142.703H189.713V120.255H167.265V142.703Z" fill="white"/>
</mask>
<g mask="url(#mask9_2_10049)">
<path d="M178.489 141.541C181.158 141.541 183.717 140.481 185.604 138.594C187.491 136.707 188.552 134.147 188.552 131.479C188.552 128.81 187.491 126.251 185.604 124.364C183.717 122.477 181.158 121.416 178.489 121.416C175.821 121.416 173.261 122.477 171.374 124.364C169.487 126.251 168.427 128.81 168.427 131.479C168.427 134.147 169.487 136.707 171.374 138.594C173.261 140.481 175.821 141.541 178.489 141.541Z" fill="#296D7E" stroke="#296D7E" stroke-width="1.16189" stroke-miterlimit="10" stroke-linejoin="round"/>
</g>
<mask id="mask10_2_10049" style="mask-type:luminance" maskUnits="userSpaceOnUse" x="203" y="74" width="23" height="23">
<path d="M203.494 96.7683H225.942V74.32H203.494V96.7683Z" fill="white"/>
</mask>
<g mask="url(#mask10_2_10049)">
<path d="M214.72 95.6064C217.389 95.6064 219.948 94.5462 221.835 92.6592C223.722 90.7723 224.783 88.2127 224.783 85.5441C224.783 82.8756 223.722 80.316 221.835 78.429C219.948 76.5421 217.389 75.4819 214.72 75.4819C212.052 75.4819 209.492 76.5421 207.605 78.429C205.718 80.316 204.658 82.8756 204.658 85.5441C204.658 88.2127 205.718 90.7723 207.605 92.6592C209.492 94.5462 212.052 95.6064 214.72 95.6064Z" fill="#2D717E" stroke="#2D717E" stroke-width="1.16189" stroke-miterlimit="10" stroke-linejoin="round"/>
</g>
<mask id="mask11_2_10049" style="mask-type:luminance" maskUnits="userSpaceOnUse" x="208" y="100" width="23" height="23">
<path d="M208.272 122.804H230.72V100.356H208.272V122.804Z" fill="white"/>
</mask>
<g mask="url(#mask11_2_10049)">
<path d="M219.495 121.643C222.164 121.643 224.723 120.582 226.61 118.695C228.497 116.808 229.557 114.249 229.557 111.58C229.557 108.912 228.497 106.352 226.61 104.465C224.723 102.578 222.164 101.518 219.495 101.518C216.826 101.518 214.267 102.578 212.38 104.465C210.493 106.352 209.433 108.912 209.433 111.58C209.433 114.249 210.493 116.808 212.38 118.695C214.267 120.582 216.826 121.643 219.495 121.643Z" fill="#276B7E" stroke="#276B7E" stroke-width="1.16189" stroke-miterlimit="10" stroke-linejoin="round"/>
</g>
<mask id="mask12_2_10049" style="mask-type:luminance" maskUnits="userSpaceOnUse" x="105" y="171" width="23" height="24">
<path d="M105.55 194.299H127.999V171.851H105.55V194.299Z" fill="white"/>
</mask>
<g mask="url(#mask12_2_10049)">
<path d="M116.776 193.137C119.444 193.137 122.004 192.077 123.891 190.19C125.778 188.303 126.838 185.743 126.838 183.075C126.838 180.406 125.778 177.846 123.891 175.959C122.004 174.073 119.444 173.012 116.776 173.012C114.107 173.012 111.547 174.073 109.66 175.959C107.773 177.846 106.713 180.406 106.713 183.075C106.713 185.743 107.773 188.303 109.66 190.19C111.547 192.077 114.107 193.137 116.776 193.137Z" fill="#7B0154" stroke="#7B0154" stroke-width="1.16189" stroke-miterlimit="10" stroke-linejoin="round"/>
</g>
<mask id="mask13_2_10049" style="mask-type:luminance" maskUnits="userSpaceOnUse" x="55" y="155" width="24" height="23">
<path d="M55.6282 177.819H78.0764V155.37H55.6282V177.819Z" fill="white"/>
</mask>
<g mask="url(#mask13_2_10049)">
<path d="M66.8514 176.657C69.52 176.657 72.0796 175.596 73.9665 173.709C75.8535 171.822 76.9137 169.263 76.9137 166.594C76.9137 163.926 75.8535 161.366 73.9665 159.479C72.0796 157.592 69.52 156.532 66.8514 156.532C64.1829 156.532 61.6233 157.592 59.7363 159.479C57.8494 161.366 56.7892 163.926 56.7892 166.594C56.7892 169.263 57.8494 171.822 59.7363 173.709C61.6233 175.596 64.1829 176.657 66.8514 176.657Z" fill="#710353" stroke="#710353" stroke-width="1.16189" stroke-miterlimit="10" stroke-linejoin="round"/>
</g>
<mask id="mask14_2_10049" style="mask-type:luminance" maskUnits="userSpaceOnUse" x="52" y="198" width="24" height="23">
<path d="M52.6087 220.982H75.057V198.533H52.6087V220.982Z" fill="white"/>
</mask>
<g mask="url(#mask14_2_10049)">
<path d="M63.8336 219.82C66.5021 219.82 69.0617 218.759 70.9486 216.873C72.8356 214.986 73.8958 212.426 73.8958 209.757C73.8958 207.089 72.8356 204.529 70.9486 202.642C69.0617 200.755 66.5021 199.695 63.8336 199.695C61.165 199.695 58.6054 200.755 56.7185 202.642C54.8315 204.529 53.7713 207.089 53.7713 209.757C53.7713 212.426 54.8315 214.986 56.7185 216.873C58.6054 218.759 61.165 219.82 63.8336 219.82Z" fill="#710353" stroke="#710353" stroke-width="1.16189" stroke-miterlimit="10" stroke-linejoin="round"/>
</g>
<mask id="mask15_2_10049" style="mask-type:luminance" maskUnits="userSpaceOnUse" x="79" y="207" width="23" height="24">
<path d="M79.3115 230.296H101.76V207.848H79.3115V230.296Z" fill="white"/>
</mask>
<g mask="url(#mask15_2_10049)">
<path d="M90.5373 229.134C93.2058 229.134 95.7654 228.074 97.6524 226.187C99.5393 224.3 100.6 221.74 100.6 219.072C100.6 216.403 99.5393 213.843 97.6524 211.956C95.7654 210.07 93.2058 209.009 90.5373 209.009C87.8687 209.009 85.3091 210.07 83.4222 211.956C81.5353 213.843 80.475 216.403 80.475 219.072C80.475 221.74 81.5353 224.3 83.4222 226.187C85.3091 228.074 87.8687 229.134 90.5373 229.134Z" fill="#680652" stroke="#680652" stroke-width="1.16189" stroke-miterlimit="10" stroke-linejoin="round"/>
</g>
</g>
<mask id="mask16_2_10049" style="mask-type:luminance" maskUnits="userSpaceOnUse" x="13" y="12" width="227" height="227">
<path d="M13.2275 238.672H239.099V12.8009H13.2275V238.672Z" fill="white"/>
</mask>
<g mask="url(#mask16_2_10049)">
<path d="M53.8772 97.5093C52.8907 97.5093 52.0504 97.2409 51.3564 96.704C50.6623 96.1627 50.1319 95.3791 49.7653 94.3533C49.3986 93.3231 49.2153 92.0791 49.2153 90.6211C49.2153 89.1719 49.3986 87.9344 49.7653 86.9086C50.1363 85.8784 50.6688 85.0927 51.3629 84.5514C52.0613 84.0057 52.8994 83.7329 53.8772 83.7329C54.855 83.7329 55.6909 84.0057 56.385 84.5514C57.0834 85.0927 57.616 85.8784 57.9827 86.9086C58.3537 87.9344 58.5392 89.1719 58.5392 90.6211C58.5392 92.0791 58.3559 93.3231 57.9892 94.3533C57.6225 95.3791 57.0922 96.1627 56.3981 96.704C55.704 97.2409 54.8638 97.5093 53.8772 97.5093ZM53.8772 96.0688C54.855 96.0688 55.6146 95.5974 56.1558 94.6545C56.6971 93.7116 56.9678 92.3672 56.9678 90.6211C56.9678 89.46 56.8433 88.4713 56.5945 87.655C56.3501 86.8387 55.9965 86.2167 55.5338 85.7889C55.0755 85.3611 54.5233 85.1472 53.8772 85.1472C52.9082 85.1472 52.1508 85.6252 51.6052 86.5812C51.0595 87.5328 50.7867 88.8794 50.7867 90.6211C50.7867 91.7822 50.9089 92.7688 51.1534 93.5807C51.3978 94.3926 51.7492 95.0103 52.2076 95.4337C52.6703 95.8571 53.2268 96.0688 53.8772 96.0688Z" fill="black"/>
</g>
<mask id="mask17_2_10049" style="mask-type:luminance" maskUnits="userSpaceOnUse" x="13" y="12" width="227" height="227">
<path d="M13.2275 238.672H239.099V12.8009H13.2275V238.672Z" fill="white"/>
</mask>
<g mask="url(#mask17_2_10049)">
<path d="M94.3387 50.6235V64.0332H92.7148V52.3259H92.6363L89.3624 54.4997V52.8497L92.7148 50.6235H94.3387Z" fill="black"/>
</g>
<mask id="mask18_2_10049" style="mask-type:luminance" maskUnits="userSpaceOnUse" x="13" y="12" width="227" height="227">
<path d="M13.2275 238.672H239.099V12.8009H13.2275V238.672Z" fill="white"/>
</mask>
<g mask="url(#mask18_2_10049)">
<path d="M30.1632 57.9946V56.816L34.5895 51.9707C35.1089 51.4032 35.5367 50.9099 35.8728 50.4909C36.2089 50.0675 36.4577 49.6702 36.6193 49.2992C36.7851 48.9238 36.8681 48.5309 36.8681 48.1206C36.8681 47.6492 36.7546 47.241 36.5276 46.8962C36.305 46.5513 35.9994 46.2851 35.6109 46.0974C35.2224 45.9097 34.7859 45.8158 34.3014 45.8158C33.7863 45.8158 33.3367 45.9227 32.9525 46.1366C32.5728 46.3462 32.2781 46.6408 32.0686 47.0206C31.8634 47.4004 31.7608 47.8456 31.7608 48.3563H30.2156C30.2156 47.5706 30.3967 46.8809 30.759 46.2872C31.1214 45.6936 31.6146 45.2309 32.2388 44.8991C32.8674 44.5674 33.5724 44.4015 34.3537 44.4015C35.1395 44.4015 35.8357 44.5674 36.4425 44.8991C37.0492 45.2309 37.525 45.6783 37.8699 46.2414C38.2147 46.8045 38.3871 47.4309 38.3871 48.1206C38.3871 48.6139 38.2977 49.0962 38.1187 49.5676C37.9441 50.0347 37.6385 50.5564 37.202 51.1326C36.7699 51.7044 36.1696 52.4028 35.4014 53.2278L32.3894 56.4493V56.5541H38.6229V57.9946H30.1632Z" fill="black"/>
</g>
<mask id="mask19_2_10049" style="mask-type:luminance" maskUnits="userSpaceOnUse" x="13" y="12" width="227" height="227">
<path d="M13.2275 238.672H239.099V12.8009H13.2275V238.672Z" fill="white"/>
</mask>
<g mask="url(#mask19_2_10049)">
<path d="M55.6246 40.1185C54.7603 40.1185 53.9899 39.9701 53.3133 39.6733C52.6411 39.3764 52.1063 38.9639 51.7091 38.4358C51.3162 37.9032 51.1024 37.2855 51.0674 36.5827H52.7175C52.7524 37.0149 52.9008 37.3881 53.1627 37.7024C53.4246 38.0123 53.7673 38.2524 54.1907 38.4227C54.6141 38.5929 55.0834 38.678 55.5985 38.678C56.1747 38.678 56.6854 38.5776 57.1306 38.3768C57.5759 38.176 57.9251 37.8967 58.1783 37.5387C58.4314 37.1808 58.558 36.7661 58.558 36.2946C58.558 35.8014 58.4358 35.3671 58.1914 34.9916C57.9469 34.6119 57.589 34.3151 57.1175 34.1012C56.6461 33.8873 56.0699 33.7803 55.3889 33.7803H54.3151V32.3398H55.3889C55.9215 32.3398 56.3885 32.2438 56.7901 32.0517C57.1961 31.8597 57.5126 31.589 57.7396 31.2398C57.9709 30.8906 58.0866 30.4803 58.0866 30.0088C58.0866 29.5549 57.9862 29.1598 57.7854 28.8237C57.5846 28.4876 57.3009 28.2257 56.9342 28.038C56.5719 27.8503 56.1441 27.7564 55.6508 27.7564C55.1881 27.7564 54.7516 27.8415 54.3413 28.0118C53.9353 28.1777 53.6036 28.4199 53.346 28.7386C53.0885 29.0529 52.9488 29.4326 52.927 29.8779H51.3555C51.3817 29.1751 51.5934 28.5596 51.9907 28.0314C52.3879 27.4989 52.9073 27.0842 53.549 26.7874C54.1951 26.4905 54.9044 26.3421 55.677 26.3421C56.5064 26.3421 57.2179 26.5102 57.8116 26.8463C58.4052 27.178 58.8614 27.6167 59.1801 28.1624C59.4987 28.708 59.658 29.2973 59.658 29.9303C59.658 30.6854 59.4594 31.3293 59.0622 31.8618C58.6693 32.3944 58.1346 32.7632 57.458 32.9684V33.0732C58.3048 33.2129 58.9662 33.573 59.442 34.1535C59.9178 34.7297 60.1557 35.4434 60.1557 36.2946C60.1557 37.0236 59.9571 37.6784 59.5598 38.259C59.167 38.8352 58.6301 39.2891 57.9491 39.6209C57.2681 39.9526 56.4933 40.1185 55.6246 40.1185Z" fill="black"/>
</g>
<mask id="mask20_2_10049" style="mask-type:luminance" maskUnits="userSpaceOnUse" x="13" y="12" width="227" height="227">
<path d="M13.2275 238.672H239.099V12.8009H13.2275V238.672Z" fill="white"/>
</mask>
<g mask="url(#mask20_2_10049)">
<path d="M165.898 86.5712V85.2354L171.791 75.9115H172.76V77.9806H172.106L167.653 85.0259V85.1307H175.589V86.5712H165.898ZM172.21 89.3212V86.1652V85.5432V75.9115H173.756V89.3212H172.21Z" fill="black"/>
</g>
<mask id="mask21_2_10049" style="mask-type:luminance" maskUnits="userSpaceOnUse" x="13" y="12" width="227" height="227">
<path d="M13.2275 238.672H239.099V12.8009H13.2275V238.672Z" fill="white"/>
</mask>
<g mask="url(#mask21_2_10049)">
<path d="M180.018 139.196C179.25 139.196 178.558 139.043 177.943 138.738C177.327 138.432 176.834 138.013 176.463 137.48C176.092 136.948 175.889 136.341 175.854 135.66H177.426C177.487 136.267 177.762 136.769 178.251 137.166C178.744 137.559 179.333 137.755 180.018 137.755C180.568 137.755 181.057 137.627 181.485 137.369C181.917 137.112 182.256 136.758 182.5 136.308C182.749 135.854 182.873 135.341 182.873 134.77C182.873 134.185 182.745 133.663 182.487 133.205C182.234 132.742 181.885 132.378 181.439 132.111C180.994 131.845 180.486 131.71 179.914 131.705C179.503 131.701 179.082 131.764 178.65 131.895C178.218 132.022 177.862 132.185 177.583 132.386L176.064 132.203L176.876 125.603H183.842V127.043H178.237L177.766 130.998H177.845C178.12 130.78 178.464 130.599 178.879 130.455C179.294 130.311 179.726 130.239 180.176 130.239C180.996 130.239 181.727 130.435 182.369 130.828C183.015 131.216 183.522 131.749 183.888 132.426C184.259 133.102 184.445 133.875 184.445 134.743C184.445 135.599 184.253 136.363 183.869 137.035C183.489 137.703 182.965 138.231 182.297 138.62C181.629 139.004 180.87 139.196 180.018 139.196Z" fill="black"/>
</g>
<mask id="mask22_2_10049" style="mask-type:luminance" maskUnits="userSpaceOnUse" x="13" y="12" width="227" height="227">
<path d="M13.2275 238.672H239.099V12.8009H13.2275V238.672Z" fill="white"/>
</mask>
<g mask="url(#mask22_2_10049)">
<path d="M216.513 93.2611C215.963 93.2524 215.413 93.1476 214.863 92.9468C214.313 92.746 213.811 92.4077 213.357 91.9319C212.903 91.4517 212.538 90.8035 212.263 89.9872C211.988 89.1666 211.851 88.1364 211.851 86.8967C211.851 85.7094 211.962 84.6574 212.185 83.7407C212.407 82.8197 212.73 82.0448 213.154 81.4163C213.577 80.7833 214.088 80.3032 214.686 79.9758C215.288 79.6484 215.967 79.4847 216.722 79.4847C217.473 79.4847 218.141 79.6353 218.726 79.9365C219.315 80.2333 219.795 80.648 220.166 81.1805C220.537 81.7131 220.777 82.3264 220.887 83.0205H219.289C219.141 82.4181 218.852 81.9183 218.425 81.521C217.997 81.1238 217.429 80.9252 216.722 80.9252C215.683 80.9252 214.865 81.377 214.267 82.2806C213.673 83.1841 213.374 84.4522 213.37 86.0848H213.475C213.719 85.7138 214.009 85.3973 214.345 85.1354C214.686 84.8691 215.061 84.6639 215.472 84.5199C215.882 84.3758 216.316 84.3038 216.775 84.3038C217.543 84.3038 218.246 84.4959 218.883 84.88C219.52 85.2598 220.031 85.7858 220.415 86.458C220.799 87.1259 220.991 87.892 220.991 88.7563C220.991 89.5856 220.806 90.3452 220.435 91.0349C220.064 91.7202 219.542 92.2658 218.87 92.6718C218.202 93.0734 217.416 93.2698 216.513 93.2611ZM216.513 91.8206C217.063 91.8206 217.556 91.6831 217.992 91.4081C218.433 91.1331 218.78 90.7642 219.034 90.3015C219.291 89.8388 219.42 89.3237 219.42 88.7563C219.42 88.2019 219.295 87.6977 219.047 87.2437C218.802 86.7854 218.464 86.4209 218.032 86.1503C217.604 85.8796 217.115 85.7443 216.565 85.7443C216.15 85.7443 215.764 85.8272 215.406 85.9931C215.048 86.1546 214.734 86.3773 214.463 86.661C214.197 86.9447 213.987 87.2699 213.835 87.6366C213.682 87.9989 213.605 88.3809 213.605 88.7825C213.605 89.315 213.73 89.8126 213.979 90.2753C214.232 90.738 214.577 91.1113 215.013 91.395C215.454 91.6787 215.954 91.8206 216.513 91.8206Z" fill="black"/>
</g>
<mask id="mask23_2_10049" style="mask-type:luminance" maskUnits="userSpaceOnUse" x="13" y="12" width="227" height="227">
<path d="M13.2275 238.672H239.099V12.8009H13.2275V238.672Z" fill="white"/>
</mask>
<g mask="url(#mask23_2_10049)">
<path d="M217.254 119.114L223.252 107.249V107.145H216.337V105.704H224.928V107.223L218.956 119.114H217.254Z" fill="black"/>
</g>
<mask id="mask24_2_10049" style="mask-type:luminance" maskUnits="userSpaceOnUse" x="13" y="12" width="227" height="227">
<path d="M13.2275 238.672H239.099V12.8009H13.2275V238.672Z" fill="white"/>
</mask>
<g mask="url(#mask24_2_10049)">
<path d="M118.408 190.792C117.509 190.792 116.715 190.633 116.025 190.314C115.34 189.991 114.805 189.548 114.421 188.985C114.037 188.417 113.847 187.771 113.851 187.047C113.847 186.479 113.958 185.955 114.185 185.475C114.412 184.991 114.722 184.587 115.115 184.264C115.512 183.936 115.955 183.729 116.444 183.642V183.563C115.802 183.397 115.292 183.037 114.912 182.483C114.532 181.924 114.344 181.289 114.349 180.577C114.344 179.896 114.517 179.288 114.866 178.751C115.215 178.214 115.695 177.79 116.307 177.48C116.922 177.17 117.623 177.015 118.408 177.015C119.185 177.015 119.879 177.17 120.491 177.48C121.102 177.79 121.582 178.214 121.931 178.751C122.285 179.288 122.464 179.896 122.468 180.577C122.464 181.289 122.269 181.924 121.885 182.483C121.505 183.037 121.001 183.397 120.373 183.563V183.642C120.857 183.729 121.294 183.936 121.682 184.264C122.071 184.587 122.381 184.991 122.612 185.475C122.843 185.955 122.961 186.479 122.966 187.047C122.961 187.771 122.765 188.417 122.376 188.985C121.992 189.548 121.457 189.991 120.772 190.314C120.091 190.633 119.303 190.792 118.408 190.792ZM118.408 189.351C119.015 189.351 119.539 189.253 119.98 189.057C120.421 188.86 120.761 188.583 121.001 188.225C121.241 187.867 121.364 187.448 121.368 186.968C121.364 186.462 121.233 186.014 120.975 185.626C120.718 185.237 120.366 184.932 119.921 184.709C119.48 184.486 118.976 184.375 118.408 184.375C117.837 184.375 117.326 184.486 116.876 184.709C116.431 184.932 116.08 185.237 115.822 185.626C115.569 186.014 115.444 186.462 115.449 186.968C115.444 187.448 115.56 187.867 115.796 188.225C116.036 188.583 116.379 188.86 116.824 189.057C117.269 189.253 117.797 189.351 118.408 189.351ZM118.408 182.987C118.889 182.987 119.314 182.891 119.685 182.699C120.061 182.507 120.355 182.238 120.569 181.894C120.783 181.549 120.892 181.145 120.897 180.682C120.892 180.228 120.785 179.833 120.576 179.497C120.366 179.157 120.076 178.895 119.705 178.711C119.334 178.524 118.902 178.43 118.408 178.43C117.906 178.43 117.468 178.524 117.092 178.711C116.717 178.895 116.427 179.157 116.221 179.497C116.016 179.833 115.916 180.228 115.92 180.682C115.916 181.145 116.018 181.549 116.228 181.894C116.442 182.238 116.737 182.507 117.112 182.699C117.487 182.891 117.92 182.987 118.408 182.987Z" fill="black"/>
</g>
<mask id="mask25_2_10049" style="mask-type:luminance" maskUnits="userSpaceOnUse" x="13" y="12" width="227" height="227">
<path d="M13.2275 238.672H239.099V12.8009H13.2275V238.672Z" fill="white"/>
</mask>
<g mask="url(#mask25_2_10049)">
<path d="M68.4607 160.535C69.0107 160.539 69.5607 160.644 70.1107 160.849C70.6607 161.054 71.1627 161.395 71.6167 161.871C72.0707 162.342 72.4352 162.986 72.7102 163.802C72.9852 164.619 73.1227 165.642 73.1227 166.873C73.1227 168.065 73.0092 169.123 72.7822 170.049C72.5596 170.97 72.2366 171.747 71.8131 172.38C71.3941 173.013 70.8834 173.493 70.281 173.82C69.6829 174.148 69.0063 174.311 68.2512 174.311C67.5004 174.311 66.8303 174.163 66.241 173.866C65.6561 173.565 65.1759 173.148 64.8005 172.616C64.4295 172.079 64.1916 171.457 64.0868 170.749H65.6845C65.8285 171.365 66.1144 171.873 66.5422 172.275C66.9744 172.672 67.544 172.871 68.2512 172.871C69.2857 172.871 70.102 172.419 70.7 171.516C71.3024 170.612 71.6036 169.335 71.6036 167.685H71.4988C71.2544 168.052 70.9641 168.368 70.628 168.635C70.2919 168.901 69.9187 169.106 69.5083 169.25C69.098 169.394 68.6615 169.466 68.1988 169.466C67.4305 169.466 66.7256 169.276 66.0839 168.896C65.4466 168.512 64.9358 167.986 64.5517 167.318C64.1719 166.646 63.9821 165.878 63.9821 165.014C63.9821 164.193 64.1654 163.442 64.5321 162.761C64.9031 162.076 65.4226 161.53 66.0904 161.124C66.7627 160.718 67.5527 160.522 68.4607 160.535ZM68.4607 161.975C67.9107 161.975 67.4152 162.113 66.9744 162.388C66.5379 162.659 66.1908 163.025 65.9333 163.488C65.6801 163.946 65.5535 164.455 65.5535 165.014C65.5535 165.572 65.6757 166.081 65.9202 166.539C66.169 166.993 66.5073 167.356 66.9351 167.626C67.3672 167.892 67.8583 168.026 68.4083 168.026C68.823 168.026 69.2093 167.945 69.5673 167.783C69.9252 167.617 70.2373 167.393 70.5036 167.109C70.7742 166.821 70.9859 166.496 71.1387 166.133C71.2915 165.767 71.3679 165.385 71.3679 164.987C71.3679 164.464 71.2413 163.973 70.9881 163.514C70.7393 163.056 70.3945 162.685 69.9536 162.401C69.5171 162.117 69.0194 161.975 68.4607 161.975Z" fill="black"/>
</g>
<mask id="mask26_2_10049" style="mask-type:luminance" maskUnits="userSpaceOnUse" x="13" y="12" width="227" height="227">
<path d="M13.2275 238.672H239.099V12.8009H13.2275V238.672Z" fill="white"/>
</mask>
<g mask="url(#mask26_2_10049)">
<path d="M61.8365 203.882V217.291H60.2127V205.584H60.1341L56.8603 207.758V206.108L60.2127 203.882H61.8365ZM70.067 217.475C69.0805 217.475 68.2402 217.206 67.5462 216.669C66.8521 216.128 66.3217 215.345 65.9551 214.319C65.5884 213.289 65.4051 212.045 65.4051 210.587C65.4051 209.137 65.5884 207.9 65.9551 206.874C66.3261 205.844 66.8587 205.058 67.5527 204.517C68.2511 203.971 69.0892 203.698 70.067 203.698C71.0448 203.698 71.8808 203.971 72.5748 204.517C73.2732 205.058 73.8058 205.844 74.1725 206.874C74.5435 207.9 74.729 209.137 74.729 210.587C74.729 212.045 74.5457 213.289 74.179 214.319C73.8123 215.345 73.282 216.128 72.5879 216.669C71.8938 217.206 71.0536 217.475 70.067 217.475ZM70.067 216.034C71.0448 216.034 71.8044 215.563 72.3456 214.62C72.8869 213.677 73.1576 212.333 73.1576 210.587C73.1576 209.425 73.0332 208.437 72.7843 207.62C72.5399 206.804 72.1863 206.182 71.7236 205.754C71.2653 205.327 70.7131 205.113 70.067 205.113C69.098 205.113 68.3406 205.591 67.795 206.547C67.2493 207.498 66.9765 208.845 66.9765 210.587C66.9765 211.748 67.0987 212.734 67.3432 213.546C67.5876 214.358 67.939 214.976 68.3974 215.399C68.8601 215.823 69.4166 216.034 70.067 216.034Z" fill="black"/>
</g>
<mask id="mask27_2_10049" style="mask-type:luminance" maskUnits="userSpaceOnUse" x="13" y="12" width="227" height="227">
<path d="M13.2275 238.672H239.099V12.8009H13.2275V238.672Z" fill="white"/>
</mask>
<g mask="url(#mask27_2_10049)">
<path d="M88.5408 213.196V226.606H86.917V214.898H86.8384L83.5646 217.072V215.422L86.917 213.196H88.5408ZM97.1118 213.196V226.606H95.488V214.898H95.4094L92.1355 217.072V215.422L95.488 213.196H97.1118Z" fill="black"/>
</g>
</g>
</g>
</svg>
